# xmcd
#
# Track frame offsets:
#	150
#	13325
#	27977
#	41854
#	56162
#	75562
#	94168
#	115617
#	130503
#	163090
#	197437
#	220333
#	261376
#	294801
#	305032
#	320561
#
# Disc length: 4584
#
# Revision: 2
# Processed by: cddbd v1.5.1PL0 Copyright (c) Steve Scherf et al.
# Submitted via: ExactAudioCopy v0.90b4
# Normalized: r0:DSETVAR2,TDELIM( - ),TSWAP
#
DISCID=e411e610
DTITLE=Various Artist - B.B.King and Friends CD 1
DYEAR=2000
DGENRE=Blues
TTITLE0=T-Bone Walker - I Got The Blues
TTITLE1=T-Bone Walker - I Got The Blues Again
TTITLE2=T-Bone Walker - Street Walking Woman
TTITLE3=T-Bone Walker - Cold Cold Feeling
TTITLE4=Jimmy Witherspoon - You Got Me Runnin'
TTITLE5=Jimmy Witherspoon - Big Boss Man
TTITLE6=Jimmy Witherspoon - Goin' Down Slow
TTITLE7=Jimmy Witherspoon - Trouble In Mind
TTITLE8=Freddie King - The Moon Is Rising
TTITLE9=Freddie King - Woman Across The River
TTITLE10=Freddie King - Feeling Alright
TTITLE11=Freddie King - Mojo Blues
TTITLE12=Bo Diddley - Intro/Bo Diddley
TTITLE13=Bo Diddley - I Don't Know Where I've Been
TTITLE14=Bo Diddley - Roadrunner
TTITLE15=Bo Diddley - Mona
EXTD=
EXTT0=
EXTT1=
EXTT2=
EXTT3=
EXTT4=
EXTT5=
EXTT6=
EXTT7=
EXTT8=
EXTT9=
EXTT10=
EXTT11=
EXTT12=
EXTT13=
EXTT14=
EXTT15=
PLAYORDER=
